<svg width="70" height="70" viewBox="0 0 70 70" fill="none" xmlns="http://www.w3.org/2000/svg">
<circle cx="35" cy="35" r="35" fill="#F8F8F8"/>
<g clip-path="url(#clip0)">
<path d="M49.994 31.4696C49.9909 31.4351 49.9841 31.4011 49.9735 31.3681C49.9667 31.3386 49.9571 31.3098 49.945 31.282C49.931 31.2549 49.9143 31.2293 49.8951 31.2055C49.8758 31.1773 49.8535 31.1514 49.8285 31.128C49.8205 31.121 49.8171 31.1115 49.8086 31.1045L44.9998 27.3698V23.4992C44.9998 22.6707 44.3282 21.9991 43.4998 21.9991H38.081L35.9113 20.3145C35.3753 19.8965 34.6237 19.8965 34.0877 20.3145L31.9176 21.9991H26.4988C25.6703 21.9991 24.9987 22.6707 24.9987 23.4992V27.3699L20.1915 31.1046C20.183 31.1116 20.1795 31.1211 20.1715 31.1281C20.1466 31.1514 20.1243 31.1774 20.105 31.2056C20.0858 31.2293 20.069 31.2549 20.055 31.2821C20.0429 31.3098 20.0334 31.3387 20.0265 31.3681C20.0161 31.4006 20.0093 31.4342 20.006 31.4682C20.006 31.4786 20.0001 31.4877 20.0001 31.4982V48.5004C20.0008 48.8185 20.1037 49.1279 20.2936 49.3829C20.2966 49.3874 20.2971 49.3929 20.3005 49.3969C20.3041 49.4009 20.3116 49.4054 20.3165 49.4109C20.5975 49.7806 21.0344 49.9985 21.4986 50.0005H48.5C48.9661 49.9991 49.4048 49.7801 49.686 49.4085C49.69 49.4035 49.6961 49.402 49.6995 49.397C49.703 49.392 49.7035 49.3875 49.7066 49.383C49.8965 49.1279 49.9994 48.8185 50.0001 48.5005V31.4996C50 31.4891 49.9946 31.48 49.994 31.4696ZM34.6992 21.1035C34.8738 20.9647 35.1211 20.9647 35.2957 21.1035L36.4493 21.999H33.5491L34.6992 21.1035ZM21.6246 49.0005L34.6993 38.8444C34.874 38.7059 35.1211 38.7059 35.2958 38.8444L48.3739 49.0005H21.6246ZM49 48.2209L35.9113 38.0554C35.3752 37.6377 34.6238 37.6377 34.0877 38.0554L20.9985 48.2209V32.2611L29.1925 38.6239C29.4108 38.7932 29.725 38.7535 29.8943 38.5352C30.0636 38.3168 30.0239 38.0026 29.8055 37.8333L21.4811 31.3695L24.9988 28.6359V32.4996C24.9988 32.7757 25.2227 32.9996 25.4988 32.9996C25.7749 32.9996 25.9988 32.7757 25.9988 32.4996V23.4991C25.9988 23.2229 26.2226 22.9991 26.4988 22.9991H43.4996C43.7758 22.9991 43.9996 23.2229 43.9996 23.4991V32.4996C43.9996 32.7757 44.2235 32.9996 44.4996 32.9996C44.7758 32.9996 44.9997 32.7757 44.9997 32.4996V28.6359L48.5173 31.3695L40.1784 37.8449C40.035 37.9536 39.961 38.131 39.9848 38.3094C40.0086 38.4879 40.1264 38.6397 40.2933 38.7071C40.4603 38.7744 40.6505 38.7469 40.7915 38.6349L48.9999 32.2611V48.2209H49Z" fill="#FFB75E"/>
<path d="M40.9996 31.9994V29.9993C40.9996 26.6854 38.3131 23.999 34.9993 23.999C31.6854 23.999 28.999 26.6854 28.999 29.9993C28.999 33.3132 31.6854 35.9996 34.9993 35.9996C35.2754 35.9996 35.4993 35.7758 35.4993 35.4996C35.4993 35.2235 35.2754 34.9996 34.9993 34.9996C32.2377 34.9996 29.999 32.7609 29.999 29.9994C29.999 27.2378 32.2377 24.9992 34.9993 24.9992C37.7608 24.9992 39.9995 27.2378 39.9995 29.9994V31.9995C39.9995 32.5518 39.5517 32.9995 38.9994 32.9995C38.4471 32.9995 37.9993 32.5518 37.9993 31.9995V29.9994C37.9993 29.7232 37.7755 29.4994 37.4993 29.4994C37.2232 29.4994 36.9993 29.7232 36.9993 29.9994C36.9993 31.104 36.1039 31.9995 34.9993 31.9995C33.8947 31.9995 32.9992 31.104 32.9992 29.9994C32.9992 28.8948 33.8947 27.9993 34.9993 27.9993C35.2754 27.9993 35.4993 27.7755 35.4993 27.4993C35.4993 27.2231 35.2754 26.9993 34.9993 26.9993C33.6565 26.9963 32.4753 27.8859 32.1073 29.1772C31.7393 30.4686 32.2741 31.8472 33.4167 32.5524C34.5594 33.2577 36.0314 33.1179 37.0208 32.2101C37.1297 33.2675 38.0488 34.0538 39.1103 33.9976C40.1719 33.9413 41.0029 33.0625 40.9996 31.9994Z" fill="#FFB75E"/>
</g>
<defs>
<clipPath id="clip0">
<rect width="30" height="30" fill="white" transform="translate(20 20)"/>
</clipPath>
</defs>
</svg>
